# xmcd
#
# Track frame offsets:
#	150
#	16075
#	27700
#	44103
#	59363
#	71799
#	83324
#	96658
#	107862
#	118929
#	131895
#	144364
#	159475
#	169810
#	185480
#	195067
#	208355
#	222028
#	237946
#	252253
#
# Disc length: 3502 seconds
#
# Revision: 1
# Processed by: cddbd v1.5.1PL2 Copyright (c) Steve Scherf et al.
# Submitted via: CDRider 2.1
#
DISCID=2b0dac14
DTITLE=Dinah Washington - The Ultimate Collection 1962-64 - The Roulette Albums
DYEAR=2005
DGENRE=Blues
TTITLE0=Drinking Again
TTITLE1=Destination Moon
TTITLE2=Miss You
TTITLE3=Is You Is Or Is You Ain't My Baby
TTITLE4=You're Nobody Till Somebody Loves You
TTITLE5=Red Sails In The Sunset
TTITLE6=Coquette
TTITLE7=Fly Me To The Moon
TTITLE8=You're A Sweetheart
TTITLE9=That's My Desire
TTITLE10=Love Is The Sweetest Thing
TTITLE11=I Used To Love You
TTITLE12=Do Nothing 'Till You Hear From Me
TTITLE13=These Foolish Things
TTITLE14=Baby Won't You Please Come Home
TTITLE15=I'll Be Around
TTITLE16=Lover Man (Oh Where Can You Be)
TTITLE17=The Man That Got Away
TTITLE18=Say It Isn't So
TTITLE19=On The Streets Of Regret
EXTD=
EXTT0=
EXTT1=
EXTT2=
EXTT3=
EXTT4=
EXTT5=
EXTT6=
EXTT7=
EXTT8=
EXTT9=
EXTT10=
EXTT11=
EXTT12=
EXTT13=
EXTT14=
EXTT15=
EXTT16=
EXTT17=
EXTT18=
EXTT19=
PLAYORDER=
